<svg width="173" height="24" viewBox="0 0 173 24" fill="none" xmlns="http://www.w3.org/2000/svg">
<path d="M0.566875 23V0.439999H5.39888V10.264H5.52688L17.6549 0.439999H23.8629L8.95088 12.248L9.17488 10.648L24.6949 23H18.0069L5.52688 12.632H5.39888V23H0.566875ZM33.6141 23.32C32.1635 23.32 30.8835 23.0853 29.7741 22.616C28.6861 22.1253 27.8328 21.464 27.2141 20.632C26.5955 19.7787 26.2861 18.8293 26.2861 17.784C26.2861 16.7813 26.6275 15.896 27.3101 15.128C28.0141 14.36 29.1341 13.7733 30.6701 13.368C32.2275 12.9413 34.3288 12.728 36.9741 12.728H40.5581V15.544H37.1981C35.9181 15.544 34.8728 15.5973 34.0621 15.704C33.2515 15.7893 32.6115 15.9173 32.1421 16.088C31.6728 16.2373 31.3315 16.4507 31.1181 16.728C30.9261 17.0053 30.8301 17.336 30.8301 17.72C30.8301 18.4667 31.1608 19.032 31.8221 19.416C32.4835 19.7787 33.3795 19.96 34.5101 19.96C35.4701 19.96 36.3555 19.8 37.1661 19.48C37.9981 19.16 38.6595 18.7013 39.1501 18.104C39.6621 17.4853 39.9181 16.792 39.9181 16.024V11.96C39.9181 10.9147 39.5128 10.1893 38.7021 9.784C37.9128 9.35733 36.7715 9.144 35.2781 9.144C34.0195 9.144 32.8141 9.29333 31.6621 9.592C30.5101 9.89067 29.4115 10.3387 28.3661 10.936L27.0541 7.672C27.8648 7.224 28.7395 6.85067 29.6781 6.552C30.6381 6.25333 31.6301 6.02933 32.6541 5.88C33.6781 5.73067 34.7128 5.656 35.7581 5.656C37.5501 5.656 39.0861 5.89067 40.3661 6.36C41.6461 6.82933 42.6275 7.56533 43.3101 8.568C44.0141 9.57067 44.3661 10.8827 44.3661 12.504V23H40.3021V19.384H40.4301C40.0675 20.152 39.5768 20.8347 38.9581 21.432C38.3608 22.0293 37.6141 22.4987 36.7181 22.84C35.8435 23.16 34.8088 23.32 33.6141 23.32ZM50.3049 23V5.976H54.6889V9.4H54.6249C55.3289 8.22667 56.2675 7.30933 57.4409 6.648C58.6355 5.98667 60.0435 5.656 61.6649 5.656C63.1582 5.656 64.4382 5.912 65.5049 6.424C66.5929 6.91467 67.4249 7.736 68.0009 8.888C68.5769 10.0187 68.8649 11.5013 68.8649 13.336V23H64.2249V13.464C64.2249 12.4613 64.0649 11.672 63.7449 11.096C63.4462 10.52 62.9982 10.0933 62.4009 9.816C61.8249 9.51733 61.0995 9.368 60.2249 9.368C59.1795 9.368 58.2622 9.58133 57.4729 10.008C56.6835 10.4347 56.0649 11.0107 55.6169 11.736C55.1689 12.44 54.9449 13.2187 54.9449 14.072V23H50.3049ZM75.3169 23V0.439999H86.1649C89.2369 0.439999 91.8182 0.866666 93.9089 1.72C95.9995 2.57333 97.5782 3.84267 98.6449 5.528C99.7115 7.192 100.245 9.25067 100.245 11.704C100.245 14.1573 99.7009 16.2267 98.6129 17.912C97.5462 19.576 95.9675 20.8453 93.8769 21.72C91.7862 22.5733 89.2155 23 86.1649 23H75.3169ZM80.1489 19.064H85.8449C89.0875 19.064 91.4662 18.4773 92.9809 17.304C94.5169 16.1307 95.2849 14.264 95.2849 11.704C95.2849 9.144 94.5169 7.27733 92.9809 6.104C91.4662 4.93067 89.0875 4.344 85.8449 4.344H80.1489V19.064ZM112.27 23.32C110.82 23.32 109.54 23.0853 108.43 22.616C107.342 22.1253 106.489 21.464 105.87 20.632C105.252 19.7787 104.942 18.8293 104.942 17.784C104.942 16.7813 105.284 15.896 105.966 15.128C106.67 14.36 107.79 13.7733 109.326 13.368C110.884 12.9413 112.985 12.728 115.63 12.728H119.214V15.544H115.854C114.574 15.544 113.529 15.5973 112.718 15.704C111.908 15.7893 111.268 15.9173 110.798 16.088C110.329 16.2373 109.988 16.4507 109.774 16.728C109.582 17.0053 109.486 17.336 109.486 17.72C109.486 18.4667 109.817 19.032 110.478 19.416C111.14 19.7787 112.036 19.96 113.166 19.96C114.126 19.96 115.012 19.8 115.822 19.48C116.654 19.16 117.316 18.7013 117.806 18.104C118.318 17.4853 118.574 16.792 118.574 16.024V11.96C118.574 10.9147 118.169 10.1893 117.358 9.784C116.569 9.35733 115.428 9.144 113.934 9.144C112.676 9.144 111.47 9.29333 110.318 9.592C109.166 9.89067 108.068 10.3387 107.022 10.936L105.71 7.672C106.521 7.224 107.396 6.85067 108.334 6.552C109.294 6.25333 110.286 6.02933 111.31 5.88C112.334 5.73067 113.369 5.656 114.414 5.656C116.206 5.656 117.742 5.89067 119.022 6.36C120.302 6.82933 121.284 7.56533 121.966 8.568C122.67 9.57067 123.022 10.8827 123.022 12.504V23H118.958V19.384H119.086C118.724 20.152 118.233 20.8347 117.614 21.432C117.017 22.0293 116.27 22.4987 115.374 22.84C114.5 23.16 113.465 23.32 112.27 23.32ZM128.961 23V5.976H133.345V9.4H133.281C133.985 8.22667 134.924 7.30933 136.097 6.648C137.292 5.98667 138.7 5.656 140.321 5.656C141.814 5.656 143.094 5.912 144.161 6.424C145.249 6.91467 146.081 7.736 146.657 8.888C147.233 10.0187 147.521 11.5013 147.521 13.336V23H142.881V13.464C142.881 12.4613 142.721 11.672 142.401 11.096C142.102 10.52 141.654 10.0933 141.057 9.816C140.481 9.51733 139.756 9.368 138.881 9.368C137.836 9.368 136.918 9.58133 136.129 10.008C135.34 10.4347 134.721 11.0107 134.273 11.736C133.825 12.44 133.601 13.2187 133.601 14.072V23H128.961ZM153.461 23V5.976H157.845V9.4H157.781C158.485 8.22667 159.424 7.30933 160.597 6.648C161.792 5.98667 163.2 5.656 164.821 5.656C166.314 5.656 167.594 5.912 168.661 6.424C169.749 6.91467 170.581 7.736 171.157 8.888C171.733 10.0187 172.021 11.5013 172.021 13.336V23H167.381V13.464C167.381 12.4613 167.221 11.672 166.901 11.096C166.602 10.52 166.154 10.0933 165.557 9.816C164.981 9.51733 164.256 9.368 163.381 9.368C162.336 9.368 161.418 9.58133 160.629 10.008C159.84 10.4347 159.221 11.0107 158.773 11.736C158.325 12.44 158.101 13.2187 158.101 14.072V23H153.461Z" fill="#F1F1F1"/>
</svg>
